<svg xmlns="http://www.w3.org/2000/svg" width="200" height="200" fill="none" shape-rendering="crispEdges" viewBox="0 0 200 200"><g clip-path="url(#clip0_1_639)"><path fill="#fff" d="M84 84H68V68H84V84Z" opacity=".75"/><path fill="#fff" d="M84 100H68V84H84V100Z"/><path fill="#fff" d="M84 116H68V100H84V116Z"/><path fill="#fff" d="M84 132H68V116H84V132Z" opacity=".75"/><path fill="#fff" d="M132 84H116V68H132V84Z" opacity=".75"/><path fill="#fff" d="M132 100H116V84H132V100Z"/><path fill="#fff" d="M132 116H116V100H132V116Z"/><path fill="#fff" d="M132 132H116V116H132V132Z" opacity=".75"/><path fill="#fff" d="M100 132H84V116H100V132Z"/><path fill="#fff" d="M116 132H100V116H116V132Z"/><path fill="#fff" d="M100 84H84V68H100V84Z"/><path fill="#fff" d="M116 84H100V68H116V84Z"/><path fill="#fff" fill-opacity=".25" d="M100 36H84V52H100V36Z"/><path fill="#fff" fill-opacity=".75" d="M116 148H100V132H116V148Z"/><path fill="#fff" fill-opacity=".75" d="M148 100H132V116H148V100Z"/><path fill="#fff" fill-opacity=".75" d="M68 116H52V100H68V116Z"/><path fill="#fff" fill-opacity=".75" d="M116 52H100V68H116V52Z"/><path fill="#fff" fill-opacity=".25" d="M116 36H100V52H116V36Z"/><path fill="#fff" fill-opacity=".25" d="M100 164H84V148H100V164Z"/><path fill="#fff" fill-opacity=".25" d="M116 164H100V148H116V164Z"/><path fill="#fff" fill-opacity=".25" d="M164 84H148V100H164V84Z"/><path fill="#fff" fill-opacity=".25" d="M164 100H148V116H164V100Z"/><path fill="#fff" fill-opacity=".25" d="M52 116H36V100H52V116Z"/><path fill="#fff" fill-opacity=".25" d="M52 100H36V84H52V100Z"/><path fill="#fff" fill-opacity=".75" d="M100 52H84V68H100V52Z"/><path fill="#fff" fill-opacity=".75" d="M100 148H84V132H100V148Z"/><path fill="#fff" fill-opacity=".75" d="M148 84H132V100H148V84Z"/><path fill="#fff" fill-opacity=".75" d="M68 100H52V84H68V100Z"/></g><defs><clipPath id="clip0_1_639"><rect width="128" height="128" fill="#fff" transform="translate(36 36)"/></clipPath></defs></svg>